<svg width="24" height="24" viewBox="0 0 24 24" fill="none" xmlns="http://www.w3.org/2000/svg">
<path fill-rule="evenodd" clip-rule="evenodd" d="M6.39684 16.0005L14.136 8.44248C14.5312 8.05661 15.1718 8.05661 15.5669 8.44248C15.962 8.82836 15.962 9.45398 15.5669 9.83985L7.96177 17.267C11.1951 17.5388 14.4125 16.4092 16.7349 14.1411C19.3334 11.6034 20.4726 7.97151 19.7752 4.44788L19.7295 4.21734L19.4935 4.17278C15.8854 3.4917 12.1665 4.60418 9.56794 7.14187C7.17422 9.47957 6.01891 12.7458 6.39684 16.0005ZM4.64092 17.7154L4.54092 17.2101C3.71601 13.0422 5.06343 8.74622 8.13709 5.7445C11.2107 2.74279 15.6097 1.4269 19.8775 2.23251L21.4567 2.53061L21.7619 4.07285C22.5868 8.24077 21.2394 12.5367 18.1658 15.5385C15.0921 18.5402 10.6932 19.8561 6.42536 19.0505L6.18249 19.0046L4.12002 21.0188C3.7249 21.4047 3.08428 21.4047 2.68916 21.0188C2.29404 20.6329 2.29404 20.0073 2.68916 19.6214L4.64092 17.7154Z" fill="#64748B"/>
</svg>
